<svg width="25" height="23" viewBox="0 0 25 23" fill="none" xmlns="http://www.w3.org/2000/svg">
<path d="M3.71047 15.5H4.83732C5.27304 15.5 5.70278 15.3986 6.09251 15.2037C6.36233 15.0688 6.60864 14.8913 6.82195 14.678L6.99989 14.5L11.7013 8.85832C11.8942 8.62681 11.9999 8.33498 11.9999 8.03362C11.9999 7.69196 11.8642 7.3643 11.6226 7.12271L11.4999 7.00002C11.1797 6.67988 10.7455 6.50002 10.2928 6.50002H6.80266C6.30113 6.50002 5.83279 6.75067 5.55459 7.16797C5.21869 7.67182 5.21869 8.32822 5.55459 8.83207L6.99989 11L7.99989 9.50002L6.99989 8.00002H9.99989L5.41511 13.7124C5.26915 13.8942 5.04855 14 4.81535 14H3.40576C3.13885 14 2.8756 13.9379 2.63686 13.8185C2.22901 13.6146 1.91888 13.257 1.77468 12.8244L1.76296 12.7893C1.59599 12.2883 1.65624 11.7394 1.92791 11.2867L7.28818 2.35287C7.42645 2.12243 7.63005 1.93494 7.87042 1.81475C8.26402 1.61796 8.73153 1.61584 9.12513 1.81264C9.3696 1.93488 9.57287 2.12609 9.70982 2.36263L14.9999 11.5L15.9999 10L10.9249 1.69551C10.6472 1.24101 10.2426 0.871357 9.76614 0.63315C8.97415 0.237152 8.03378 0.233078 7.24178 0.629076C6.75749 0.871221 6.35337 1.24798 6.07792 1.71413L0.562128 11.0485C0.201872 11.6582 0.0961833 12.3852 0.267934 13.0722C0.417982 13.6724 0.770053 14.2026 1.26498 14.5738L1.53142 14.7737C2.16006 15.2452 2.92467 15.5 3.71047 15.5Z" fill="#333333"/>
<path d="M9.49989 12.3L8.49989 13.5L14.1716 22.0076C14.3867 22.3303 14.6823 22.5913 15.0292 22.7647C15.3387 22.9195 15.6799 23 16.0259 23H16.0444C16.6561 23 17.2428 22.757 17.6754 22.3244L17.7658 22.234C17.9212 22.0786 18.0563 21.9043 18.1681 21.7152L24.0953 11.6846C24.3601 11.2364 24.4998 10.7254 24.4998 10.2049V10.0607C24.4998 9.38155 24.23 8.73024 23.7498 8.25002C23.2696 7.76981 22.6183 7.50002 21.9391 7.50002H19.3844C18.8283 7.50002 18.3055 7.76495 17.9767 8.21337L13.6038 14.1764C13.2411 14.671 13.2261 15.3395 13.5663 15.8498C13.8371 16.256 14.293 16.5 14.7812 16.5H18.0251C18.329 16.5 18.6205 16.3793 18.8355 16.1644C19.2217 15.7781 19.2817 15.1728 18.9787 14.7183L17.4999 12.5L16.5999 13.7L17.4998 15H14.9998L19.2376 9.34959C19.4027 9.12953 19.6617 9.00002 19.9367 9.00002H21.6908C21.894 9.00002 22.0944 9.04734 22.2762 9.13822L22.3742 9.18722C22.7576 9.37893 22.9998 9.7708 22.9998 10.1995C22.9998 10.3964 22.9484 10.59 22.8507 10.761L17.0855 20.85C17.0286 20.9496 16.9587 21.0411 16.8776 21.1222L16.6766 21.3232C16.5634 21.4364 16.4099 21.5 16.2498 21.5C16.0897 21.5 15.9362 21.4364 15.823 21.3232L15.5899 21.0901C15.53 21.0302 15.4756 20.9649 15.4274 20.8951L9.49989 12.3Z" fill="#333333"/>
</svg>
