<svg viewBox="0 0 30 30" fill="none" xmlns="http://www.w3.org/2000/svg">
  <path stroke="currentColor" stroke-width="2" stroke-linecap="round" stroke-linejoin="round" d="M12.8186 5.23508C12.3032 6.47194 10.8581 7.0307 9.64146 6.46919C7.62848 5.54013 5.54 7.62861 6.46906 9.64159C7.03057 10.8582 6.47181 12.3034 5.23495 12.8188C3.29603 13.6266 3.29603 16.3734 5.23495 17.1813C6.47181 17.6966 7.03057 19.1419 6.46906 20.3584C5.54 22.3714 7.62848 24.4599 9.64146 23.5308C10.8581 22.9693 12.3032 23.528 12.8186 24.7649C13.6265 26.7039 16.3732 26.7039 17.1811 24.7649C17.6965 23.528 19.1417 22.9693 20.3582 23.5308C22.3712 24.4599 24.4597 22.3714 23.5306 20.3584C22.9691 19.1419 23.5279 17.6966 24.7647 17.1813C26.7037 16.3734 26.7037 13.6266 24.7647 12.8188C23.5279 12.3034 22.9691 10.8582 23.5306 9.64159C24.4597 7.62861 22.3712 5.54013 20.3582 6.46919C19.1417 7.0307 17.6965 6.47194 17.1811 5.23508C16.3732 3.29616 13.6265 3.29616 12.8186 5.23508Z"/>
  <path stroke="currentColor" stroke-width="2" d="M18.75 15C18.75 17.0711 17.0711 18.75 15 18.75C12.9289 18.75 11.25 17.0711 11.25 15C11.25 12.9289 12.9289 11.25 15 11.25C17.0711 11.25 18.75 12.9289 18.75 15Z"/>
</svg>
