<svg width="18" height="20" viewBox="0 0 18 20" fill="none" xmlns="http://www.w3.org/2000/svg">
<path d="M0 18.2979V16.1702H1.35V17.8723C1.35 18.3424 1.75294 18.7234 2.25 18.7234H15.75C16.2471 18.7234 16.65 18.3424 16.65 17.8723V16.1702H18V18.2979C18 19.2379 17.1941 20 16.2 20H1.8C0.805888 20 0 19.2379 0 18.2979Z" fill="#555555"/>
<path d="M8.4 15.1734V0.567375C8.4 0.254023 8.66863 0 9 0C9.33137 0 9.6 0.254023 9.6 0.567376V15.1734C9.61868 15.1583 9.63688 15.1424 9.65455 15.1257L15.7564 9.35562C16.0014 9.12397 16.3986 9.12397 16.6436 9.35563C16.8935 9.59198 16.8877 9.97684 16.6307 10.2063L9.68095 16.4131C9.29874 16.7545 8.70126 16.7545 8.31905 16.4131L1.36928 10.2063C1.1123 9.97684 1.10649 9.59198 1.35643 9.35563C1.60141 9.12397 1.99859 9.12397 2.24357 9.35563L8.34546 15.1257C8.36312 15.1424 8.38132 15.1583 8.4 15.1734Z" fill="#555555"/>
</svg>
