<svg width="20" height="26" viewBox="0 0 20 26" fill="none" xmlns="http://www.w3.org/2000/svg">
<path d="M17.2855 6.53554C18.0081 7.25811 18.3694 7.6194 18.5597 8.07882C18.75 8.53825 18.75 9.04919 18.75 10.0711V19.25C18.75 21.607 18.75 22.7855 18.0177 23.5177C17.2855 24.25 16.107 24.25 13.75 24.25H6.25C3.89298 24.25 2.71446 24.25 1.98224 23.5177C1.25 22.7855 1.25 21.607 1.25 19.25V6.75C1.25 4.39298 1.25 3.21446 1.98224 2.48224C2.71446 1.75 3.89298 1.75 6.25 1.75H10.4289C11.4507 1.75 11.9618 1.75 12.4211 1.9403C12.8806 2.1306 13.2419 2.49189 13.9645 3.21446L17.2855 6.53554Z" stroke="#555555" stroke-width="2" stroke-linejoin="round"/>
</svg>
