<svg viewBox="0 0 30 30" fill="none" xmlns="http://www.w3.org/2000/svg">
  <path stroke="currentColor" stroke-width="2" stroke-linejoin="round" d="M22.1522 9.76638C22.9395 10.4974 23.3332 10.863 23.5416 11.3409C23.75 11.8188 23.75 12.356 23.75 13.4304V21.25C23.75 23.607 23.75 24.7855 23.0177 25.5178C22.2855 26.25 21.107 26.25 18.75 26.25H17.5H12.5H11.25C8.89298 26.25 7.71446 26.25 6.98224 25.5178C6.25 24.7855 6.25 23.607 6.25 21.25V13.4304C6.25 12.356 6.25 11.8188 6.4584 11.3409C6.66681 10.863 7.06045 10.4974 7.84775 9.76638L10.625 7.18751L11.5978 6.28424C13.2114 4.78582 14.0183 4.03661 15 4.03661C15.9817 4.03661 16.7886 4.78582 18.4022 6.28424L19.375 7.18751L22.1522 9.76638Z"/>
  <path stroke="currentColor" stroke-width="2" stroke-linecap="round" stroke-linejoin="round" d="M12.5 26.25V21.25C12.5 19.8693 13.6193 18.75 15 18.75C16.3808 18.75 17.5 19.8693 17.5 21.25V26.25"/>
</svg>
