<svg width="100" height="30" viewBox="0 0 100 30" fill="none" xmlns="http://www.w3.org/2000/svg">
<g clip-path="url(#clip0_511_3211)">
<path d="M11.7579 18V17.2676C12.3031 17.2676 12.6815 17.2228 12.8931 17.1333C13.1128 17.0438 13.2227 16.8932 13.2227 16.6816C13.2227 16.6328 13.2146 16.5636 13.1983 16.4741C13.182 16.3765 13.1413 16.2381 13.0762 16.0591C13.0193 15.8719 12.9338 15.6318 12.8199 15.3389C12.7059 15.0378 12.5473 14.6593 12.3438 14.2036H8.3521C8.21376 14.5454 8.09169 14.8587 7.98589 15.1436C7.89638 15.3877 7.81093 15.6237 7.72955 15.8516C7.6563 16.0713 7.61968 16.2137 7.61968 16.2788C7.61968 16.5881 7.74989 16.82 8.01031 16.9746C8.27886 17.1292 8.70204 17.2269 9.27984 17.2676V18H4.64117V17.2676C4.85276 17.2269 5.03993 17.1781 5.20269 17.1211C5.37359 17.056 5.53228 16.9583 5.67876 16.8281C5.83339 16.6898 5.97987 16.5067 6.11822 16.2788C6.25656 16.0428 6.40305 15.7417 6.55767 15.3755L10.7203 5.25586H11.4527L16.0792 15.7905C16.2012 16.0672 16.3396 16.2992 16.4942 16.4863C16.6488 16.6654 16.8116 16.8159 16.9825 16.938C17.1534 17.0519 17.3243 17.1333 17.4952 17.1821C17.6742 17.231 17.8451 17.2594 18.0079 17.2676V18H11.7579ZM10.2198 9.45508L8.74273 13.1294H11.8677L10.2198 9.45508ZM26.8331 14.8872C26.7435 15.3104 26.6052 15.7254 26.418 16.1323C26.239 16.5392 25.9989 16.9014 25.6978 17.2188C25.4048 17.5361 25.0508 17.7925 24.6358 17.9878C24.2289 18.1831 23.7569 18.2808 23.2198 18.2808C22.6501 18.2808 22.1334 18.175 21.6695 17.9634C21.2056 17.7437 20.8069 17.4466 20.4732 17.0723C20.1477 16.6979 19.8954 16.2585 19.7164 15.7539C19.5373 15.2412 19.4478 14.696 19.4478 14.1182C19.4478 13.3857 19.5577 12.7266 19.7774 12.1406C19.9971 11.5465 20.286 11.042 20.6441 10.627C21.0103 10.2119 21.4253 9.89046 21.8892 9.6626C22.3612 9.43473 22.8495 9.3208 23.3541 9.3208C23.9481 9.3208 24.4527 9.39811 24.8677 9.55273C25.2828 9.70736 25.6205 9.8986 25.8809 10.1265C26.1413 10.3462 26.3326 10.5863 26.4546 10.8467C26.5767 11.1071 26.6377 11.3431 26.6377 11.5547C26.6377 11.8965 26.5442 12.1732 26.357 12.3848C26.178 12.5964 25.9013 12.7021 25.5269 12.7021C25.2177 12.7021 24.9817 12.6411 24.8189 12.519C24.6561 12.397 24.5341 12.2464 24.4527 12.0674C24.3713 11.8802 24.3062 11.6808 24.2574 11.4692C24.2085 11.2495 24.1394 11.0501 24.0499 10.8711C23.9685 10.6839 23.8464 10.5293 23.6836 10.4072C23.5209 10.2852 23.2808 10.2241 22.9634 10.2241C22.5158 10.2241 22.1659 10.4032 21.9136 10.7612C21.6695 11.1193 21.5474 11.6442 21.5474 12.3359C21.5474 12.8975 21.6166 13.4224 21.7549 13.9106C21.8933 14.3908 22.0845 14.8099 22.3287 15.168C22.5728 15.526 22.8658 15.8068 23.2076 16.0103C23.5494 16.2137 23.9237 16.3154 24.3306 16.3154C24.4771 16.3154 24.6358 16.2992 24.8067 16.2666C24.9776 16.2259 25.1485 16.1486 25.3194 16.0347C25.4903 15.9126 25.6571 15.7417 25.8199 15.522C25.9908 15.3022 26.1495 15.0133 26.296 14.6553L26.8331 14.8872ZM36.0977 14.8872C36.0082 15.3104 35.8698 15.7254 35.6827 16.1323C35.5036 16.5392 35.2636 16.9014 34.9625 17.2188C34.6695 17.5361 34.3155 17.7925 33.9004 17.9878C33.4935 18.1831 33.0215 18.2808 32.4844 18.2808C31.9148 18.2808 31.398 18.175 30.9341 17.9634C30.4703 17.7437 30.0715 17.4466 29.7378 17.0723C29.4123 16.6979 29.16 16.2585 28.981 15.7539C28.802 15.2412 28.7125 14.696 28.7125 14.1182C28.7125 13.3857 28.8223 12.7266 29.042 12.1406C29.2618 11.5465 29.5507 11.042 29.9087 10.627C30.275 10.2119 30.69 9.89046 31.1539 9.6626C31.6259 9.43473 32.1141 9.3208 32.6187 9.3208C33.2128 9.3208 33.7173 9.39811 34.1324 9.55273C34.5474 9.70736 34.8851 9.8986 35.1456 10.1265C35.406 10.3462 35.5972 10.5863 35.7193 10.8467C35.8414 11.1071 35.9024 11.3431 35.9024 11.5547C35.9024 11.8965 35.8088 12.1732 35.6216 12.3848C35.4426 12.5964 35.1659 12.7021 34.7916 12.7021C34.4823 12.7021 34.2463 12.6411 34.0835 12.519C33.9208 12.397 33.7987 12.2464 33.7173 12.0674C33.636 11.8802 33.5709 11.6808 33.522 11.4692C33.4732 11.2495 33.404 11.0501 33.3145 10.8711C33.2331 10.6839 33.1111 10.5293 32.9483 10.4072C32.7855 10.2852 32.5455 10.2241 32.2281 10.2241C31.7805 10.2241 31.4306 10.4032 31.1783 10.7612C30.9341 11.1193 30.8121 11.6442 30.8121 12.3359C30.8121 12.8975 30.8812 13.4224 31.0196 13.9106C31.1579 14.3908 31.3492 14.8099 31.5933 15.168C31.8375 15.526 32.1304 15.8068 32.4722 16.0103C32.814 16.2137 33.1884 16.3154 33.5953 16.3154C33.7418 16.3154 33.9004 16.2992 34.0713 16.2666C34.2422 16.2259 34.4131 16.1486 34.584 16.0347C34.7549 15.9126 34.9218 15.7417 35.0845 15.522C35.2554 15.3022 35.4141 15.0133 35.5606 14.6553L36.0977 14.8872ZM45.1548 14.8872C45.0653 15.3104 44.927 15.7254 44.7398 16.1323C44.5608 16.5392 44.3248 16.9014 44.0318 17.2188C43.7388 17.5361 43.3889 17.7925 42.982 17.9878C42.5751 18.1831 42.1031 18.2808 41.566 18.2808C40.9638 18.2808 40.4266 18.175 39.9546 17.9634C39.4826 17.7437 39.0839 17.4344 38.7584 17.0356C38.4328 16.6369 38.1846 16.1649 38.0137 15.6196C37.851 15.0662 37.7696 14.4518 37.7696 13.7764C37.7696 13.0928 37.8876 12.4743 38.1236 11.9209C38.3677 11.3675 38.681 10.8996 39.0635 10.5171C39.4542 10.1265 39.8936 9.82943 40.3819 9.62598C40.8702 9.41439 41.3666 9.30859 41.8711 9.30859C42.3106 9.30859 42.7297 9.37777 43.1285 9.51611C43.5272 9.64632 43.8772 9.86198 44.1783 10.1631C44.4794 10.4561 44.7154 10.8385 44.8863 11.3105C45.0653 11.7826 45.1548 12.3522 45.1548 13.0195H39.8814C39.8814 13.4102 39.9424 13.8049 40.0645 14.2036C40.1866 14.5942 40.3656 14.9482 40.6016 15.2656C40.8458 15.5749 41.1387 15.8271 41.4805 16.0225C41.8223 16.2178 42.2129 16.3154 42.6524 16.3154C43.0593 16.3154 43.4255 16.1934 43.751 15.9492C44.0766 15.7051 44.3655 15.2738 44.6177 14.6553L45.1548 14.8872ZM42.689 12.2261C42.689 12.0389 42.6646 11.8314 42.6158 11.6035C42.5669 11.3675 42.4815 11.1478 42.3594 10.9443C42.2455 10.7409 42.0909 10.57 41.8956 10.4316C41.7084 10.2933 41.4724 10.2241 41.1876 10.2241C41.0248 10.2241 40.862 10.2729 40.6993 10.3706C40.5446 10.4601 40.4022 10.5944 40.272 10.7734C40.15 10.9443 40.0523 11.1559 39.9791 11.4082C39.9058 11.6523 39.8692 11.925 39.8692 12.2261H42.689ZM47.4004 18V17.2676C47.6202 17.2676 47.7992 17.2472 47.9376 17.2065C48.0759 17.1659 48.1817 17.0967 48.2549 16.999C48.3282 16.9014 48.377 16.7712 48.4014 16.6084C48.434 16.4375 48.4502 16.2218 48.4502 15.9614V7.74609C48.4502 7.26595 48.4014 6.94043 48.3038 6.76953C48.2142 6.59049 48.08 6.50098 47.9009 6.50098C47.787 6.50098 47.6731 6.51318 47.5591 6.5376C47.4533 6.56201 47.3475 6.59456 47.2418 6.63525L46.961 6.00049L50.3423 4.92627H51.0748V15.9614C51.0748 16.2463 51.091 16.4741 51.1236 16.645C51.1561 16.8159 51.209 16.9461 51.2823 17.0356C51.3637 17.1252 51.4654 17.1862 51.5875 17.2188C51.7177 17.2513 51.8804 17.2676 52.0757 17.2676V18H47.4004ZM61.2671 14.8872C61.1776 15.3104 61.0393 15.7254 60.8521 16.1323C60.6731 16.5392 60.4371 16.9014 60.1441 17.2188C59.8511 17.5361 59.5012 17.7925 59.0943 17.9878C58.6874 18.1831 58.2154 18.2808 57.6783 18.2808C57.0761 18.2808 56.539 18.175 56.0669 17.9634C55.5949 17.7437 55.1962 17.4344 54.8707 17.0356C54.5451 16.6369 54.2969 16.1649 54.126 15.6196C53.9633 15.0662 53.8819 14.4518 53.8819 13.7764C53.8819 13.0928 53.9999 12.4743 54.2359 11.9209C54.48 11.3675 54.7933 10.8996 55.1758 10.5171C55.5665 10.1265 56.0059 9.82943 56.4942 9.62598C56.9825 9.41439 57.4789 9.30859 57.9835 9.30859C58.4229 9.30859 58.842 9.37777 59.2408 9.51611C59.6395 9.64632 59.9895 9.86198 60.2906 10.1631C60.5917 10.4561 60.8277 10.8385 60.9986 11.3105C61.1776 11.7826 61.2671 12.3522 61.2671 13.0195H55.9937C55.9937 13.4102 56.0547 13.8049 56.1768 14.2036C56.2989 14.5942 56.4779 14.9482 56.7139 15.2656C56.9581 15.5749 57.251 15.8271 57.5928 16.0225C57.9346 16.2178 58.3252 16.3154 58.7647 16.3154C59.1716 16.3154 59.5378 16.1934 59.8633 15.9492C60.1889 15.7051 60.4778 15.2738 60.73 14.6553L61.2671 14.8872ZM58.8013 12.2261C58.8013 12.0389 58.7769 11.8314 58.7281 11.6035C58.6793 11.3675 58.5938 11.1478 58.4717 10.9443C58.3578 10.7409 58.2032 10.57 58.0079 10.4316C57.8207 10.2933 57.5847 10.2241 57.2999 10.2241C57.1371 10.2241 56.9743 10.2729 56.8116 10.3706C56.657 10.4601 56.5145 10.5944 56.3843 10.7734C56.2623 10.9443 56.1646 11.1559 56.0914 11.4082C56.0181 11.6523 55.9815 11.925 55.9815 12.2261H58.8013ZM69.1158 9.3208C69.3111 9.3208 69.4983 9.35335 69.6773 9.41846C69.8563 9.47542 70.011 9.56087 70.1412 9.6748C70.2795 9.7806 70.3853 9.91488 70.4585 10.0776C70.5399 10.2323 70.5806 10.4072 70.5806 10.6025C70.5806 10.9199 70.4911 11.2007 70.3121 11.4448C70.1412 11.689 69.8685 11.811 69.4942 11.811C69.2501 11.811 69.0466 11.7703 68.8838 11.689C68.7292 11.5994 68.5909 11.5059 68.4688 11.4082C68.3549 11.3105 68.2491 11.221 68.1514 11.1396C68.0538 11.0501 67.948 11.0054 67.834 11.0054C67.7445 11.0054 67.6469 11.0461 67.5411 11.1274C67.4434 11.2088 67.3417 11.3228 67.2359 11.4692C67.1301 11.6076 67.0243 11.7663 66.9185 11.9453C66.8127 12.1243 66.711 12.3115 66.6133 12.5068V15.9736C66.6133 16.2422 66.6296 16.4619 66.6622 16.6328C66.6947 16.7956 66.7476 16.9258 66.8209 17.0234C66.8941 17.113 66.9958 17.1781 67.126 17.2188C67.2562 17.2513 67.419 17.2676 67.6143 17.2676V18H62.9512V17.2676C63.171 17.2676 63.3459 17.2513 63.4761 17.2188C63.6145 17.1862 63.7203 17.1211 63.7935 17.0234C63.8668 16.9258 63.9156 16.7956 63.94 16.6328C63.9725 16.4619 63.9888 16.2422 63.9888 15.9736V12.1406C63.9888 11.6523 63.9522 11.3228 63.879 11.1519C63.8057 10.981 63.6714 10.8955 63.4761 10.8955C63.3785 10.8955 63.2442 10.9077 63.0733 10.9321C62.9024 10.9565 62.7722 10.9891 62.6827 11.0298L62.4629 10.3462L65.8809 9.3208H66.6133V11.103C66.7517 10.8833 66.9144 10.6676 67.1016 10.4561C67.2888 10.2363 67.4882 10.0451 67.6998 9.88232C67.9113 9.71143 68.1351 9.57715 68.3711 9.47949C68.6153 9.3737 68.8635 9.3208 69.1158 9.3208ZM80.5044 16.7793C80.4231 16.877 80.2929 17.0031 80.1138 17.1577C79.9348 17.3123 79.7232 17.467 79.4791 17.6216C79.2431 17.7681 78.9786 17.8942 78.6856 18C78.4008 18.1139 78.1078 18.1709 77.8067 18.1709C77.6114 18.1709 77.4283 18.1343 77.2574 18.061C77.0865 17.9959 76.9359 17.9064 76.8057 17.7925C76.6836 17.6704 76.586 17.5361 76.5127 17.3896C76.4395 17.235 76.4029 17.0723 76.4029 16.9014C76.1994 17.0723 75.996 17.235 75.7925 17.3896C75.5972 17.5443 75.3938 17.6826 75.1822 17.8047C74.9706 17.9186 74.7468 18.0081 74.5108 18.0732C74.2829 18.1383 74.0388 18.1709 73.7784 18.1709C73.1517 18.1709 72.6675 17.9797 72.3257 17.5972C71.9921 17.2147 71.8252 16.6816 71.8252 15.998C71.8252 15.5342 71.9839 15.1151 72.3013 14.7407C72.6268 14.3664 73.0215 14.0327 73.4854 13.7397C73.9574 13.4468 74.4579 13.1904 74.9869 12.9707C75.5158 12.751 75.9878 12.5679 76.4029 12.4214V12.0796C76.4029 11.7948 76.3785 11.5343 76.3296 11.2983C76.289 11.0542 76.2238 10.8467 76.1343 10.6758C76.0448 10.4967 75.9268 10.3584 75.7803 10.2607C75.642 10.1631 75.4752 10.1143 75.2798 10.1143C74.9625 10.1143 74.7346 10.2078 74.5962 10.395C74.4579 10.5741 74.3887 10.924 74.3887 11.4448C74.3887 11.5832 74.3684 11.7297 74.3277 11.8843C74.287 12.0308 74.2178 12.165 74.1202 12.2871C74.0307 12.4092 73.9086 12.5109 73.754 12.5923C73.5993 12.6737 73.404 12.7144 73.168 12.7144C72.8262 12.7144 72.5495 12.6126 72.3379 12.4092C72.1345 12.2057 72.0328 11.925 72.0328 11.5669C72.0328 11.2088 72.1426 10.8914 72.3624 10.6147C72.5902 10.3299 72.8751 10.0939 73.2169 9.90674C73.5586 9.71143 73.9289 9.56494 74.3277 9.46729C74.7346 9.36963 75.1171 9.3208 75.4752 9.3208C76.1262 9.3208 76.6796 9.3737 77.1353 9.47949C77.591 9.57715 77.9613 9.74398 78.2461 9.97998C78.531 10.2078 78.7344 10.5049 78.8565 10.8711C78.9867 11.2373 79.0518 11.6808 79.0518 12.2017V14.7041C79.0518 14.9401 79.0518 15.1842 79.0518 15.4365C79.0599 15.6888 79.0762 15.8963 79.1006 16.0591C79.1169 16.173 79.1535 16.2788 79.2105 16.3765C79.2675 16.466 79.3651 16.5107 79.5035 16.5107C79.5686 16.5107 79.65 16.4863 79.7476 16.4375C79.8453 16.3887 79.9429 16.3317 80.0406 16.2666C80.1382 16.2015 80.2278 16.1364 80.3091 16.0713C80.3987 15.998 80.4638 15.937 80.5044 15.8882V16.7793ZM76.4029 13.3003C76.0123 13.4712 75.6867 13.6502 75.4263 13.8374C75.174 14.0164 74.9706 14.1995 74.816 14.3867C74.6695 14.5739 74.5637 14.7692 74.4986 14.9727C74.4416 15.168 74.4131 15.3674 74.4131 15.5708C74.4131 15.8312 74.4782 16.0591 74.6085 16.2544C74.7387 16.4497 74.9258 16.5474 75.17 16.5474C75.3734 16.5474 75.5809 16.4741 75.7925 16.3276C76.0123 16.1812 76.2157 16.0062 76.4029 15.8027V13.3003ZM87.523 15.5952C87.4823 15.8312 87.4009 16.1038 87.2789 16.4131C87.1568 16.7142 86.9778 17.0072 86.7418 17.292C86.5139 17.5687 86.2209 17.8047 85.8628 18C85.5129 18.1872 85.0897 18.2808 84.5933 18.2808C83.9341 18.2808 83.4296 18.0366 83.0796 17.5483C82.7297 17.0519 82.5547 16.348 82.5547 15.4365V10.4805H81.1021V9.91895C81.4358 9.86198 81.7654 9.73991 82.0909 9.55273C82.4245 9.35742 82.7419 9.11735 83.043 8.83252C83.3441 8.54769 83.6249 8.23031 83.8853 7.88037C84.1457 7.53044 84.3736 7.16829 84.5689 6.79395H85.1793V9.57715H87.4009V10.4805H85.1793V15.0947C85.1793 15.6481 85.2403 16.0387 85.3624 16.2666C85.4844 16.4945 85.6675 16.6084 85.9117 16.6084C86.1151 16.6084 86.3023 16.5189 86.4732 16.3398C86.6522 16.1527 86.8028 15.9045 86.9249 15.5952H87.523ZM96.1529 14.8872C96.0634 15.3104 95.925 15.7254 95.7378 16.1323C95.5588 16.5392 95.3228 16.9014 95.0298 17.2188C94.7369 17.5361 94.3869 17.7925 93.98 17.9878C93.5731 18.1831 93.1011 18.2808 92.564 18.2808C91.9618 18.2808 91.4247 18.175 90.9527 17.9634C90.4807 17.7437 90.0819 17.4344 89.7564 17.0356C89.4309 16.6369 89.1827 16.1649 89.0118 15.6196C88.849 15.0662 88.7676 14.4518 88.7676 13.7764C88.7676 13.0928 88.8856 12.4743 89.1216 11.9209C89.3658 11.3675 89.6791 10.8996 90.0616 10.5171C90.4522 10.1265 90.8917 9.82943 91.3799 9.62598C91.8682 9.41439 92.3646 9.30859 92.8692 9.30859C93.3086 9.30859 93.7278 9.37777 94.1265 9.51611C94.5253 9.64632 94.8752 9.86198 95.1763 10.1631C95.4774 10.4561 95.7134 10.8385 95.8843 11.3105C96.0634 11.7826 96.1529 12.3522 96.1529 13.0195H90.8794C90.8794 13.4102 90.9405 13.8049 91.0626 14.2036C91.1846 14.5942 91.3637 14.9482 91.5997 15.2656C91.8438 15.5749 92.1368 15.8271 92.4786 16.0225C92.8204 16.2178 93.211 16.3154 93.6504 16.3154C94.0573 16.3154 94.4236 16.1934 94.7491 15.9492C95.0746 15.7051 95.3635 15.2738 95.6158 14.6553L96.1529 14.8872ZM93.6871 12.2261C93.6871 12.0389 93.6627 11.8314 93.6138 11.6035C93.565 11.3675 93.4795 11.1478 93.3575 10.9443C93.2435 10.7409 93.0889 10.57 92.8936 10.4316C92.7064 10.2933 92.4704 10.2241 92.1856 10.2241C92.0228 10.2241 91.8601 10.2729 91.6973 10.3706C91.5427 10.4601 91.4003 10.5944 91.2701 10.7734C91.148 10.9443 91.0503 11.1559 90.9771 11.4082C90.9039 11.6523 90.8672 11.925 90.8672 12.2261H93.6871Z" fill="#333333"/>
<g filter="url(#filter0_d_511_3211)">
<path d="M98 17H2V19H98V17Z" fill="#333333"/>
</g>
<g filter="url(#filter1_d_511_3211)">
<path d="M98 4H2V9L3.86431 7.73177C5.52303 6.60339 7.48279 6 9.48893 6H46.1538C46.744 7.38117 48.5796 7.66175 49.5555 6.51997L49.9999 6H88.2557C91.7312 6 95.1263 7.04527 98 9V4Z" fill="#333333"/>
</g>
<path d="M8.10215 25V24.707C8.25189 24.707 8.37722 24.7005 8.47813 24.6875C8.58229 24.6712 8.6653 24.6419 8.72715 24.5996C8.789 24.5573 8.83294 24.4971 8.85899 24.4189C8.88828 24.3408 8.90293 24.2383 8.90293 24.1113V20.9033L7.08652 25H6.85215L5.05039 20.7764V24.1113C5.05039 24.248 5.06504 24.3571 5.09434 24.4385C5.12689 24.5166 5.17246 24.5752 5.23106 24.6143C5.29291 24.6533 5.3694 24.6794 5.46055 24.6924C5.55169 24.7021 5.65749 24.707 5.77793 24.707V25H3.87852V24.707C3.9957 24.707 4.09824 24.7021 4.18613 24.6924C4.27402 24.6794 4.34727 24.6533 4.40586 24.6143C4.46445 24.5752 4.5084 24.5166 4.5377 24.4385C4.57025 24.3571 4.58652 24.248 4.58652 24.1113V20.9473C4.58652 20.8203 4.58327 20.7161 4.57676 20.6348C4.57025 20.5501 4.54746 20.4834 4.5084 20.4346C4.46934 20.3857 4.40749 20.3516 4.32285 20.332C4.24147 20.3125 4.12591 20.3027 3.97617 20.3027V20.0098H5.98789L7.32578 23.2959L8.81992 20.0098H10.773V20.3027C10.6233 20.3027 10.5012 20.3125 10.4068 20.332C10.3157 20.3516 10.2441 20.3857 10.192 20.4346C10.1399 20.4834 10.1041 20.5501 10.0846 20.6348C10.0683 20.7161 10.0602 20.8203 10.0602 20.9473V24.1113C10.0602 24.2383 10.0683 24.3408 10.0846 24.4189C10.1041 24.4971 10.1399 24.5573 10.192 24.5996C10.2441 24.6419 10.3157 24.6712 10.4068 24.6875C10.5012 24.7005 10.6233 24.707 10.773 24.707V25H8.10215ZM16.4711 20.3027C16.3865 20.3027 16.31 20.3109 16.2416 20.3271C16.1732 20.3402 16.1016 20.376 16.0268 20.4346C15.9551 20.4932 15.877 20.5794 15.7924 20.6934C15.7077 20.8073 15.6068 20.9635 15.4896 21.1621L14.4154 22.9834V24.0625C14.4154 24.1895 14.4285 24.2952 14.4545 24.3799C14.4838 24.4613 14.5294 24.5264 14.5912 24.5752C14.6563 24.624 14.741 24.6582 14.8451 24.6777C14.9493 24.6973 15.0762 24.707 15.226 24.707V25H12.4281V24.707C12.5779 24.707 12.7048 24.6973 12.809 24.6777C12.9132 24.6582 12.9978 24.624 13.0629 24.5752C13.1313 24.5264 13.1801 24.4613 13.2094 24.3799C13.2387 24.2952 13.2533 24.1895 13.2533 24.0625V23.1787L11.9984 21.0596C11.9138 20.9196 11.8389 20.8008 11.7738 20.7031C11.7087 20.6055 11.6452 20.5273 11.5834 20.4688C11.5216 20.4102 11.4581 20.3678 11.393 20.3418C11.3311 20.3158 11.2595 20.3027 11.1781 20.3027V20.0098H13.5707V20.3027C13.3949 20.3027 13.2598 20.3174 13.1654 20.3467C13.0743 20.376 13.0287 20.4281 13.0287 20.5029C13.0287 20.542 13.0482 20.6038 13.0873 20.6885C13.1264 20.7699 13.1898 20.887 13.2777 21.04C13.3689 21.1898 13.4877 21.3802 13.6342 21.6113C13.7839 21.8424 13.9678 22.1257 14.1859 22.4609L15.0697 20.957C15.1218 20.8724 15.1592 20.7926 15.182 20.7178C15.2081 20.6396 15.2211 20.5713 15.2211 20.5127C15.2211 20.4476 15.1853 20.3971 15.1137 20.3613C15.0421 20.3223 14.9184 20.3027 14.7426 20.3027V20.0098H16.4711V20.3027ZM21.1242 21.3672C21.1242 21.5592 21.0868 21.7432 21.0119 21.9189C20.9403 22.0915 20.8231 22.2445 20.6604 22.3779C20.5008 22.5114 20.2941 22.6172 20.0402 22.6953C19.7863 22.7734 19.4787 22.8125 19.1174 22.8125C19.0718 22.8125 19.0295 22.8125 18.9904 22.8125C18.9514 22.8092 18.9156 22.806 18.883 22.8027C18.8472 22.7995 18.813 22.7962 18.7805 22.793V24.1064C18.7805 24.2269 18.7886 24.3262 18.8049 24.4043C18.8244 24.4792 18.8586 24.5394 18.9074 24.585C18.9563 24.6305 19.0246 24.6631 19.1125 24.6826C19.2036 24.6989 19.3225 24.707 19.4689 24.707V25H16.9396V24.707C17.0894 24.707 17.2082 24.6989 17.2961 24.6826C17.3872 24.6631 17.4572 24.6305 17.5061 24.585C17.5549 24.5361 17.5858 24.471 17.5988 24.3896C17.6151 24.305 17.6232 24.1992 17.6232 24.0723V20.8398C17.6232 20.7227 17.6151 20.6299 17.5988 20.5615C17.5858 20.4899 17.5549 20.4362 17.5061 20.4004C17.4572 20.3613 17.3872 20.3353 17.2961 20.3223C17.2082 20.3092 17.0894 20.3027 16.9396 20.3027V20.0098H19.3225C19.6057 20.0098 19.8579 20.0423 20.0793 20.1074C20.3039 20.1725 20.4927 20.2637 20.6457 20.3809C20.802 20.498 20.9208 20.6413 21.0021 20.8105C21.0835 20.9766 21.1242 21.1621 21.1242 21.3672ZM19.8986 21.3672C19.8986 21.2305 19.884 21.1051 19.8547 20.9912C19.8254 20.8773 19.7749 20.7796 19.7033 20.6982C19.6317 20.6169 19.5341 20.555 19.4104 20.5127C19.2899 20.4671 19.1353 20.4443 18.9465 20.4443C18.927 20.4443 18.9074 20.446 18.8879 20.4492C18.8684 20.4492 18.8505 20.4508 18.8342 20.4541C18.8146 20.4574 18.7967 20.4606 18.7805 20.4639V22.3682C18.8 22.3714 18.8179 22.3747 18.8342 22.3779C18.8505 22.3812 18.8667 22.3844 18.883 22.3877C18.9025 22.3877 18.9237 22.3877 18.9465 22.3877C19.132 22.3877 19.2867 22.3617 19.4104 22.3096C19.5341 22.2542 19.6317 22.181 19.7033 22.0898C19.7749 21.9987 19.8254 21.8913 19.8547 21.7676C19.884 21.6439 19.8986 21.5104 19.8986 21.3672ZM24.459 25V24.707C24.6771 24.707 24.8285 24.6891 24.9131 24.6533C25.001 24.6175 25.0449 24.5573 25.0449 24.4727C25.0449 24.4531 25.0417 24.4255 25.0352 24.3896C25.0286 24.3506 25.0124 24.2952 24.9863 24.2236C24.9635 24.1488 24.9294 24.0527 24.8838 23.9355C24.8382 23.8151 24.7747 23.6637 24.6934 23.4814H23.0967C23.0413 23.6182 22.9925 23.7435 22.9502 23.8574C22.9144 23.9551 22.8802 24.0495 22.8477 24.1406C22.8184 24.2285 22.8037 24.2855 22.8037 24.3115C22.8037 24.4352 22.8558 24.528 22.96 24.5898C23.0674 24.6517 23.2367 24.6908 23.4678 24.707V25H21.6123V24.707C21.6969 24.6908 21.7718 24.6712 21.8369 24.6484C21.9053 24.6224 21.9688 24.5833 22.0273 24.5312C22.0892 24.4759 22.1478 24.4027 22.2031 24.3115C22.2585 24.2171 22.3171 24.0967 22.3789 23.9502L24.0439 19.9023H24.3369L26.1875 24.1162C26.2363 24.2269 26.2917 24.3197 26.3535 24.3945C26.4154 24.4661 26.4805 24.5264 26.5488 24.5752C26.6172 24.6208 26.6855 24.6533 26.7539 24.6729C26.8255 24.6924 26.8939 24.7038 26.959 24.707V25H24.459ZM23.8438 21.582L23.2529 23.0518H24.5029L23.8438 21.582ZM31.7146 21.5039C31.6788 21.1393 31.573 20.8724 31.3973 20.7031C31.2215 20.5306 30.9578 20.4443 30.6063 20.4443H30.2889V24.0625C30.2889 24.1895 30.297 24.2952 30.3133 24.3799C30.3328 24.4613 30.3686 24.5264 30.4207 24.5752C30.476 24.624 30.5493 24.6582 30.6404 24.6777C30.7348 24.6973 30.8585 24.707 31.0115 24.707V25H28.4139V24.707C28.5636 24.707 28.6857 24.6973 28.7801 24.6777C28.8745 24.6582 28.9477 24.624 28.9998 24.5752C29.0519 24.5264 29.0861 24.4613 29.1023 24.3799C29.1219 24.2952 29.1316 24.1895 29.1316 24.0625V20.4443H28.7654C28.5929 20.4443 28.4415 20.4639 28.3113 20.5029C28.1844 20.5387 28.0753 20.599 27.9842 20.6836C27.893 20.765 27.8214 20.874 27.7693 21.0107C27.7205 21.1442 27.688 21.3086 27.6717 21.5039H27.3738L27.4227 20.0098H31.9588L32.0076 21.5039H31.7146ZM32.5836 25V24.707C32.7333 24.707 32.8538 24.6973 32.9449 24.6777C33.0393 24.6582 33.1109 24.624 33.1598 24.5752C33.2119 24.5264 33.246 24.4613 33.2623 24.3799C33.2818 24.2952 33.2916 24.1895 33.2916 24.0625V20.9961C33.2916 20.8691 33.2818 20.7617 33.2623 20.6738C33.246 20.5827 33.2119 20.5111 33.1598 20.459C33.1109 20.4036 33.0393 20.3646 32.9449 20.3418C32.8538 20.3158 32.7333 20.3027 32.5836 20.3027V20.0098H35.152V20.3027C35.0022 20.3027 34.8801 20.3158 34.7857 20.3418C34.6946 20.3646 34.623 20.4036 34.5709 20.459C34.5221 20.5111 34.4895 20.5827 34.4732 20.6738C34.457 20.7617 34.4488 20.8691 34.4488 20.9961V24.0625C34.4488 24.1895 34.457 24.2952 34.4732 24.3799C34.4895 24.4613 34.5221 24.5264 34.5709 24.5752C34.623 24.624 34.6946 24.6582 34.7857 24.6777C34.8801 24.6973 35.0022 24.707 35.152 24.707V25H32.5836ZM39.6 25H35.6645V24.707C35.8207 24.707 35.9444 24.6956 36.0355 24.6729C36.13 24.6468 36.2016 24.6045 36.2504 24.5459C36.2992 24.484 36.3318 24.4027 36.348 24.3018C36.3643 24.2008 36.3725 24.0739 36.3725 23.9209V21.0742C36.3725 20.918 36.366 20.791 36.3529 20.6934C36.3399 20.5924 36.309 20.5127 36.2602 20.4541C36.2113 20.3955 36.1397 20.3548 36.0453 20.332C35.9509 20.3092 35.824 20.2979 35.6645 20.2979V20.0098H39.6488L39.7074 21.3525H39.4242C39.3819 21.193 39.3412 21.0563 39.3022 20.9424C39.2663 20.8252 39.2159 20.7308 39.1508 20.6592C39.0889 20.5843 39.0027 20.5306 38.892 20.498C38.7846 20.4622 38.6381 20.4443 38.4525 20.4443H37.5199V22.2461H37.9691C38.1221 22.2461 38.2442 22.2282 38.3354 22.1924C38.4298 22.1566 38.5046 22.1029 38.56 22.0312C38.6186 21.9596 38.6609 21.8701 38.6869 21.7627C38.7162 21.6553 38.7406 21.5283 38.7602 21.3818H39.0531V23.4668H38.7602C38.7406 23.3203 38.7162 23.1966 38.6869 23.0957C38.6609 22.9948 38.6202 22.9134 38.5648 22.8516C38.5095 22.7865 38.4346 22.7409 38.3402 22.7148C38.2491 22.6855 38.1254 22.6709 37.9691 22.6709H37.5199V23.9697C37.5199 24.0674 37.5216 24.1536 37.5248 24.2285C37.5313 24.3034 37.5476 24.3669 37.5736 24.4189C37.6029 24.471 37.6452 24.5117 37.7006 24.541C37.7559 24.5671 37.8357 24.5801 37.9398 24.5801H38.3354C38.5535 24.5801 38.7341 24.5605 38.8773 24.5215C39.0206 24.4792 39.1443 24.4173 39.2484 24.3359C39.3526 24.2513 39.447 24.1439 39.5316 24.0137C39.6163 23.8835 39.7091 23.7305 39.81 23.5547H40.1127L39.6 25ZM45.801 20.3027C45.6838 20.3027 45.5878 20.3109 45.5129 20.3271C45.4413 20.3402 45.3843 20.3662 45.342 20.4053C45.3029 20.4443 45.2753 20.4997 45.259 20.5713C45.2427 20.6396 45.2346 20.7292 45.2346 20.8398V25.0781H44.8049L41.8898 21.3086V24.1699C41.8898 24.2839 41.9012 24.3766 41.924 24.4482C41.9501 24.5166 41.9891 24.5703 42.0412 24.6094C42.0933 24.6484 42.1617 24.6745 42.2463 24.6875C42.3309 24.7005 42.4351 24.707 42.5588 24.707V25H40.7863V24.707C40.9035 24.707 41.0012 24.7005 41.0793 24.6875C41.1607 24.6745 41.2274 24.6484 41.2795 24.6094C41.3316 24.5703 41.369 24.5166 41.3918 24.4482C41.4146 24.3766 41.426 24.2839 41.426 24.1699V20.7178C41.3511 20.6201 41.2909 20.5436 41.2453 20.4883C41.1997 20.4329 41.1558 20.3923 41.1135 20.3662C41.0744 20.3369 41.0305 20.319 40.9816 20.3125C40.9328 20.3027 40.8677 20.2979 40.7863 20.2979V20.0098H42.427L44.7707 23.0469V20.8398C44.7707 20.7292 44.7609 20.6396 44.7414 20.5713C44.7219 20.4997 44.6893 20.4443 44.6438 20.4053C44.5982 20.3662 44.5347 20.3402 44.4533 20.3271C44.3719 20.3109 44.271 20.3027 44.1506 20.3027V20.0098H45.801V20.3027ZM50.6494 21.5039C50.6136 21.1393 50.5078 20.8724 50.332 20.7031C50.1562 20.5306 49.8926 20.4443 49.541 20.4443H49.2236V24.0625C49.2236 24.1895 49.2318 24.2952 49.248 24.3799C49.2676 24.4613 49.3034 24.5264 49.3555 24.5752C49.4108 24.624 49.484 24.6582 49.5752 24.6777C49.6696 24.6973 49.7933 24.707 49.9463 24.707V25H47.3486V24.707C47.4984 24.707 47.6204 24.6973 47.7148 24.6777C47.8092 24.6582 47.8825 24.624 47.9346 24.5752C47.9867 24.5264 48.0208 24.4613 48.0371 24.3799C48.0566 24.2952 48.0664 24.1895 48.0664 24.0625V20.4443H47.7002C47.5277 20.4443 47.3763 20.4639 47.2461 20.5029C47.1191 20.5387 47.0101 20.599 46.9189 20.6836C46.8278 20.765 46.7562 20.874 46.7041 21.0107C46.6553 21.1442 46.6227 21.3086 46.6064 21.5039H46.3086L46.3574 20.0098H50.8936L50.9424 21.5039H50.6494ZM56.5232 23.7891C56.4451 23.9193 56.3475 24.0625 56.2303 24.2188C56.1131 24.3717 55.9666 24.515 55.7908 24.6484C55.6183 24.7786 55.4132 24.8877 55.1756 24.9756C54.938 25.0635 54.6629 25.1074 54.3504 25.1074C53.9044 25.1074 53.5154 25.0391 53.1834 24.9023C52.8546 24.7624 52.5812 24.5768 52.3631 24.3457C52.145 24.1113 51.9822 23.8444 51.8748 23.5449C51.7674 23.2422 51.7137 22.9281 51.7137 22.6025C51.7137 22.3844 51.7381 22.1663 51.7869 21.9482C51.8357 21.7301 51.9074 21.5218 52.0018 21.3232C52.0962 21.1247 52.215 20.9391 52.3582 20.7666C52.5047 20.5908 52.6723 20.4395 52.8611 20.3125C53.0499 20.1855 53.2632 20.0863 53.5008 20.0146C53.7384 19.9398 53.9988 19.9023 54.282 19.9023C54.4708 19.9023 54.6434 19.9219 54.7996 19.9609C54.9559 19.9967 55.0926 20.0374 55.2098 20.083C55.3302 20.1286 55.4295 20.1709 55.5076 20.21C55.589 20.2458 55.6476 20.2637 55.6834 20.2637C55.7355 20.2637 55.7762 20.2539 55.8055 20.2344C55.8348 20.2148 55.8576 20.1888 55.8738 20.1562C55.8934 20.1204 55.908 20.0798 55.9178 20.0342C55.9308 19.9886 55.9454 19.9414 55.9617 19.8926H56.2449L56.3572 21.8164H56.0643C56.0089 21.582 55.9259 21.3721 55.8152 21.1865C55.7046 21.001 55.576 20.8447 55.4295 20.7178C55.2863 20.5908 55.13 20.4932 54.9607 20.4248C54.7915 20.3564 54.6238 20.3223 54.4578 20.3223C54.2039 20.3223 53.9842 20.3825 53.7986 20.5029C53.6131 20.6201 53.4601 20.7829 53.3396 20.9912C53.2192 21.1963 53.1297 21.4372 53.0711 21.7139C53.0125 21.9906 52.9832 22.2868 52.9832 22.6025C52.9832 22.9183 53.0223 23.2048 53.1004 23.4619C53.1785 23.7158 53.2876 23.9323 53.4275 24.1113C53.5708 24.2904 53.74 24.4287 53.9354 24.5264C54.1339 24.6208 54.3536 24.668 54.5945 24.668C54.7898 24.668 54.9705 24.6354 55.1365 24.5703C55.3025 24.5052 55.4539 24.4222 55.5906 24.3213C55.7306 24.2171 55.8543 24.0999 55.9617 23.9697C56.0724 23.8395 56.1701 23.7093 56.2547 23.5791L56.5232 23.7891ZM62.5875 22.5049C62.5875 22.8532 62.5257 23.1852 62.402 23.501C62.2815 23.8167 62.1074 24.0951 61.8795 24.3359C61.6516 24.5736 61.3733 24.764 61.0445 24.9072C60.719 25.0472 60.3512 25.1172 59.941 25.1172C59.5309 25.1172 59.1614 25.0472 58.8326 24.9072C58.5038 24.7673 58.2239 24.5785 57.9928 24.3408C57.7649 24.1032 57.5891 23.8265 57.4654 23.5107C57.345 23.1917 57.2848 22.8564 57.2848 22.5049C57.2848 22.1436 57.3499 21.805 57.4801 21.4893C57.6135 21.1702 57.7975 20.8936 58.0318 20.6592C58.2695 20.4248 58.5494 20.2409 58.8717 20.1074C59.1972 19.9707 59.5504 19.9023 59.9313 19.9023C60.3414 19.9023 60.7109 19.9723 61.0396 20.1123C61.3684 20.249 61.6467 20.4362 61.8746 20.6738C62.1057 20.9115 62.2815 21.1882 62.402 21.5039C62.5257 21.8164 62.5875 22.1501 62.5875 22.5049ZM61.2594 22.5293C61.2594 22.3633 61.2496 22.1924 61.2301 22.0166C61.2138 21.8408 61.1861 21.6699 61.1471 21.5039C61.108 21.3346 61.0543 21.1768 60.9859 21.0303C60.9208 20.8805 60.8378 20.7503 60.7369 20.6396C60.6393 20.5257 60.5237 20.4362 60.3902 20.3711C60.2568 20.306 60.1038 20.2734 59.9313 20.2734C59.7587 20.2734 59.6057 20.306 59.4723 20.3711C59.3388 20.4362 59.2232 20.5241 59.1256 20.6348C59.0279 20.7454 58.9466 20.874 58.8814 21.0205C58.8163 21.167 58.7626 21.3216 58.7203 21.4844C58.6813 21.6471 58.6536 21.8148 58.6373 21.9873C58.621 22.1566 58.6129 22.3193 58.6129 22.4756C58.6129 22.6188 58.621 22.7751 58.6373 22.9443C58.6536 23.1136 58.6813 23.2829 58.7203 23.4521C58.7626 23.6182 58.8163 23.7793 58.8814 23.9355C58.9466 24.0885 59.0279 24.2253 59.1256 24.3457C59.2232 24.4629 59.3372 24.5573 59.4674 24.6289C59.6008 24.7005 59.7555 24.7363 59.9313 24.7363C60.1917 24.7363 60.4065 24.6663 60.5758 24.5264C60.7483 24.3831 60.885 24.2025 60.9859 23.9844C61.0869 23.7663 61.1568 23.5286 61.1959 23.2715C61.2382 23.0111 61.2594 22.7637 61.2594 22.5293ZM68.4272 20.3027C68.323 20.3288 68.2335 20.3581 68.1586 20.3906C68.0837 20.4232 68.0186 20.4655 67.9633 20.5176C67.9079 20.5664 67.8591 20.6266 67.8168 20.6982C67.7745 20.7666 67.7338 20.848 67.6947 20.9424L66.0053 25.1074H65.6391L63.7445 20.8887C63.699 20.7812 63.6566 20.695 63.6176 20.6299C63.5785 20.5615 63.5346 20.5078 63.4857 20.4688C63.4369 20.4264 63.3783 20.3939 63.31 20.3711C63.2416 20.3451 63.1521 20.3223 63.0414 20.3027V20.0098H65.5072V20.3027C65.3933 20.3027 65.2973 20.3076 65.2191 20.3174C65.141 20.3271 65.0775 20.3418 65.0287 20.3613C64.9831 20.3809 64.9506 20.4053 64.9311 20.4346C64.9115 20.4639 64.9018 20.498 64.9018 20.5371C64.9018 20.5566 64.9066 20.5859 64.9164 20.625C64.9262 20.6641 64.9376 20.7064 64.9506 20.752C64.9669 20.7943 64.9831 20.8382 64.9994 20.8838C65.0189 20.9261 65.0352 20.9619 65.0482 20.9912L66.1664 23.4619L67.0941 21.1914C67.1234 21.1165 67.1479 21.0384 67.1674 20.957C67.1902 20.8757 67.2016 20.8073 67.2016 20.752C67.2016 20.6803 67.1804 20.6185 67.1381 20.5664C67.099 20.5111 67.0486 20.4655 66.9867 20.4297C66.9281 20.3906 66.863 20.3613 66.7914 20.3418C66.7198 20.3223 66.6547 20.3092 66.5961 20.3027V20.0098H68.4272V20.3027ZM72.802 25H68.8664V24.707C69.0227 24.707 69.1464 24.6956 69.2375 24.6729C69.3319 24.6468 69.4035 24.6045 69.4523 24.5459C69.5012 24.484 69.5337 24.4027 69.55 24.3018C69.5663 24.2008 69.5744 24.0739 69.5744 23.9209V21.0742C69.5744 20.918 69.5679 20.791 69.5549 20.6934C69.5419 20.5924 69.5109 20.5127 69.4621 20.4541C69.4133 20.3955 69.3417 20.3548 69.2473 20.332C69.1529 20.3092 69.0259 20.2979 68.8664 20.2979V20.0098H72.8508L72.9094 21.3525H72.6262C72.5839 21.193 72.5432 21.0563 72.5041 20.9424C72.4683 20.8252 72.4178 20.7308 72.3527 20.6592C72.2909 20.5843 72.2046 20.5306 72.0939 20.498C71.9865 20.4622 71.84 20.4443 71.6545 20.4443H70.7219V22.2461H71.1711C71.3241 22.2461 71.4462 22.2282 71.5373 22.1924C71.6317 22.1566 71.7066 22.1029 71.7619 22.0312C71.8205 21.9596 71.8628 21.8701 71.8889 21.7627C71.9182 21.6553 71.9426 21.5283 71.9621 21.3818H72.2551V23.4668H71.9621C71.9426 23.3203 71.9182 23.1966 71.8889 23.0957C71.8628 22.9948 71.8221 22.9134 71.7668 22.8516C71.7115 22.7865 71.6366 22.7409 71.5422 22.7148C71.451 22.6855 71.3273 22.6709 71.1711 22.6709H70.7219V23.9697C70.7219 24.0674 70.7235 24.1536 70.7268 24.2285C70.7333 24.3034 70.7495 24.3669 70.7756 24.4189C70.8049 24.471 70.8472 24.5117 70.9025 24.541C70.9579 24.5671 71.0376 24.5801 71.1418 24.5801H71.5373C71.7554 24.5801 71.9361 24.5605 72.0793 24.5215C72.2225 24.4792 72.3462 24.4173 72.4504 24.3359C72.5546 24.2513 72.649 24.1439 72.7336 24.0137C72.8182 23.8835 72.911 23.7305 73.0119 23.5547H73.3147L72.802 25ZM77.6846 25L76.0635 22.7441C76.0439 22.7507 76.0098 22.7539 75.9609 22.7539C75.9414 22.7539 75.9202 22.7539 75.8975 22.7539C75.8779 22.7507 75.86 22.749 75.8438 22.749V24.0576C75.8438 24.1781 75.8519 24.2806 75.8682 24.3652C75.8877 24.4466 75.9219 24.5133 75.9707 24.5654C76.0228 24.6143 76.0928 24.6501 76.1807 24.6729C76.2718 24.6956 76.3906 24.707 76.5371 24.707V25H74.0029V24.707C74.1527 24.707 74.2731 24.6956 74.3643 24.6729C74.4554 24.6501 74.5238 24.6126 74.5693 24.5605C74.6182 24.5052 74.6491 24.4336 74.6621 24.3457C74.6784 24.2578 74.6865 24.1504 74.6865 24.0234V20.8887C74.6865 20.7715 74.6784 20.6755 74.6621 20.6006C74.6491 20.5257 74.6182 20.4671 74.5693 20.4248C74.5238 20.3792 74.4554 20.3483 74.3643 20.332C74.2731 20.3125 74.1527 20.3027 74.0029 20.3027V20.0098H76.0732C76.3564 20.0098 76.6331 20.0228 76.9033 20.0488C77.1768 20.0716 77.4193 20.127 77.6309 20.2148C77.8424 20.3027 78.0117 20.4329 78.1387 20.6055C78.2689 20.7747 78.334 21.0042 78.334 21.2939C78.334 21.4925 78.3079 21.6683 78.2559 21.8213C78.207 21.9743 78.1387 22.1061 78.0508 22.2168C77.9629 22.3275 77.8587 22.417 77.7383 22.4854C77.6178 22.5537 77.4876 22.6025 77.3477 22.6318L78.4268 23.9111C78.5439 24.0511 78.653 24.1715 78.7539 24.2725C78.8548 24.3701 78.9525 24.4515 79.0469 24.5166C79.1413 24.5785 79.2357 24.6257 79.3301 24.6582C79.4277 24.6875 79.5335 24.7038 79.6475 24.707V25H77.6846ZM77.123 21.3672C77.123 21.2533 77.1133 21.141 77.0938 21.0303C77.0742 20.9196 77.0319 20.8219 76.9668 20.7373C76.9049 20.6494 76.8122 20.5794 76.6885 20.5273C76.5648 20.472 76.3988 20.4443 76.1904 20.4443C76.1286 20.4443 76.0765 20.446 76.0342 20.4492C75.9919 20.4492 75.9561 20.4508 75.9268 20.4541C75.891 20.4574 75.8633 20.4606 75.8438 20.4639V22.3145C75.8796 22.321 75.9365 22.3275 76.0146 22.334C76.096 22.3372 76.1742 22.3389 76.249 22.3389C76.3597 22.3389 76.4671 22.3161 76.5713 22.2705C76.6787 22.2249 76.7731 22.1598 76.8545 22.0752C76.9359 21.9906 77.001 21.888 77.0498 21.7676C77.0986 21.6471 77.123 21.5137 77.123 21.3672ZM82.4012 25V24.707C82.6193 24.707 82.7706 24.6891 82.8553 24.6533C82.9432 24.6175 82.9871 24.5573 82.9871 24.4727C82.9871 24.4531 82.9839 24.4255 82.9773 24.3896C82.9708 24.3506 82.9546 24.2952 82.9285 24.2236C82.9057 24.1488 82.8716 24.0527 82.826 23.9355C82.7804 23.8151 82.7169 23.6637 82.6356 23.4814H81.0389C80.9835 23.6182 80.9347 23.7435 80.8924 23.8574C80.8566 23.9551 80.8224 24.0495 80.7898 24.1406C80.7606 24.2285 80.7459 24.2855 80.7459 24.3115C80.7459 24.4352 80.798 24.528 80.9022 24.5898C81.0096 24.6517 81.1788 24.6908 81.41 24.707V25H79.5545V24.707C79.6391 24.6908 79.714 24.6712 79.7791 24.6484C79.8475 24.6224 79.9109 24.5833 79.9695 24.5312C80.0314 24.4759 80.09 24.4027 80.1453 24.3115C80.2007 24.2171 80.2592 24.0967 80.3211 23.9502L81.9861 19.9023H82.2791L84.1297 24.1162C84.1785 24.2269 84.2339 24.3197 84.2957 24.3945C84.3576 24.4661 84.4227 24.5264 84.491 24.5752C84.5594 24.6208 84.6277 24.6533 84.6961 24.6729C84.7677 24.6924 84.8361 24.7038 84.9012 24.707V25H82.4012ZM81.7859 21.582L81.1951 23.0518H82.4451L81.7859 21.582ZM90.9117 22.5635C90.7848 22.5635 90.6822 22.5765 90.6041 22.6025C90.526 22.6253 90.4658 22.6644 90.4234 22.7197C90.3811 22.7718 90.3535 22.8434 90.3404 22.9346C90.3274 23.0225 90.3209 23.1299 90.3209 23.2568V24.585C90.0117 24.7705 89.6796 24.904 89.3248 24.9854C88.9732 25.0667 88.581 25.1074 88.148 25.1074C87.6858 25.1074 87.2838 25.0342 86.942 24.8877C86.6002 24.738 86.317 24.541 86.0924 24.2969C85.8678 24.0527 85.7001 23.7744 85.5895 23.4619C85.482 23.1494 85.4283 22.8304 85.4283 22.5049C85.4283 22.1794 85.4902 21.8604 85.6139 21.5479C85.7408 21.2354 85.9215 20.957 86.1559 20.7129C86.3935 20.4688 86.6816 20.2734 87.0201 20.127C87.3619 19.9772 87.7477 19.9023 88.1773 19.9023C88.3759 19.9023 88.5566 19.9219 88.7193 19.9609C88.8854 19.9967 89.0318 20.0374 89.1588 20.083C89.289 20.1286 89.3997 20.1709 89.4908 20.21C89.5852 20.2458 89.6617 20.2637 89.7203 20.2637C89.7561 20.2637 89.7838 20.249 89.8033 20.2197C89.8261 20.1872 89.8424 20.1514 89.8521 20.1123C89.8619 20.07 89.8684 20.0293 89.8717 19.9902C89.8782 19.9479 89.8847 19.9154 89.8912 19.8926H90.1744L90.3209 21.6895H90.0328C89.9742 21.4681 89.8896 21.2712 89.7789 21.0986C89.6682 20.9229 89.5396 20.7764 89.3932 20.6592C89.2499 20.5387 89.0937 20.4476 88.9244 20.3857C88.7551 20.3206 88.581 20.2881 88.402 20.2881C88.1122 20.2881 87.8632 20.3451 87.6549 20.459C87.4498 20.5697 87.2789 20.7243 87.1422 20.9229C87.0087 21.1214 86.9094 21.3558 86.8443 21.626C86.7825 21.8962 86.7516 22.1891 86.7516 22.5049C86.7516 22.7848 86.7744 23.0583 86.8199 23.3252C86.8655 23.5889 86.9469 23.8249 87.0641 24.0332C87.1813 24.2415 87.3424 24.4092 87.5475 24.5361C87.7558 24.6598 88.0211 24.7217 88.3434 24.7217C88.5159 24.7217 88.6656 24.707 88.7926 24.6777C88.9195 24.6484 89.0432 24.5915 89.1637 24.5068V23.2568C89.1637 23.1299 89.1539 23.0225 89.1344 22.9346C89.1181 22.8434 89.0855 22.7718 89.0367 22.7197C88.9911 22.6644 88.926 22.6253 88.8414 22.6025C88.76 22.5765 88.6542 22.5635 88.524 22.5635V22.2705H90.9117V22.5635ZM95.3109 25H91.3754V24.707C91.5316 24.707 91.6553 24.6956 91.7465 24.6729C91.8409 24.6468 91.9125 24.6045 91.9613 24.5459C92.0102 24.484 92.0427 24.4027 92.059 24.3018C92.0753 24.2008 92.0834 24.0739 92.0834 23.9209V21.0742C92.0834 20.918 92.0769 20.791 92.0639 20.6934C92.0508 20.5924 92.0199 20.5127 91.9711 20.4541C91.9223 20.3955 91.8506 20.3548 91.7562 20.332C91.6618 20.3092 91.5349 20.2979 91.3754 20.2979V20.0098H95.3598L95.4184 21.3525H95.1352C95.0928 21.193 95.0521 21.0563 95.0131 20.9424C94.9773 20.8252 94.9268 20.7308 94.8617 20.6592C94.7999 20.5843 94.7136 20.5306 94.6029 20.498C94.4955 20.4622 94.349 20.4443 94.1635 20.4443H93.2309V22.2461H93.6801C93.8331 22.2461 93.9551 22.2282 94.0463 22.1924C94.1407 22.1566 94.2156 22.1029 94.2709 22.0312C94.3295 21.9596 94.3718 21.8701 94.3979 21.7627C94.4271 21.6553 94.4516 21.5283 94.4711 21.3818H94.7641V23.4668H94.4711C94.4516 23.3203 94.4271 23.1966 94.3979 23.0957C94.3718 22.9948 94.3311 22.9134 94.2758 22.8516C94.2204 22.7865 94.1456 22.7409 94.0512 22.7148C93.96 22.6855 93.8363 22.6709 93.6801 22.6709H93.2309V23.9697C93.2309 24.0674 93.2325 24.1536 93.2357 24.2285C93.2423 24.3034 93.2585 24.3669 93.2846 24.4189C93.3139 24.471 93.3562 24.5117 93.4115 24.541C93.4669 24.5671 93.5466 24.5801 93.6508 24.5801H94.0463C94.2644 24.5801 94.4451 24.5605 94.5883 24.5215C94.7315 24.4792 94.8552 24.4173 94.9594 24.3359C95.0635 24.2513 95.1579 24.1439 95.2426 24.0137C95.3272 23.8835 95.42 23.7305 95.5209 23.5547H95.8236L95.3109 25Z" fill="#333333"/>
</g>
<defs>
<filter id="filter0_d_511_3211" x="-2" y="17" width="104" height="10" filterUnits="userSpaceOnUse" color-interpolation-filters="sRGB">
<feFlood flood-opacity="0" result="BackgroundImageFix"/>
<feColorMatrix in="SourceAlpha" type="matrix" values="0 0 0 0 0 0 0 0 0 0 0 0 0 0 0 0 0 0 127 0" result="hardAlpha"/>
<feOffset dy="4"/>
<feGaussianBlur stdDeviation="2"/>
<feComposite in2="hardAlpha" operator="out"/>
<feColorMatrix type="matrix" values="0 0 0 0 0 0 0 0 0 0 0 0 0 0 0 0 0 0 0.25 0"/>
<feBlend mode="normal" in2="BackgroundImageFix" result="effect1_dropShadow_511_3211"/>
<feBlend mode="normal" in="SourceGraphic" in2="effect1_dropShadow_511_3211" result="shape"/>
</filter>
<filter id="filter1_d_511_3211" x="-2" y="4" width="104" height="13" filterUnits="userSpaceOnUse" color-interpolation-filters="sRGB">
<feFlood flood-opacity="0" result="BackgroundImageFix"/>
<feColorMatrix in="SourceAlpha" type="matrix" values="0 0 0 0 0 0 0 0 0 0 0 0 0 0 0 0 0 0 127 0" result="hardAlpha"/>
<feOffset dy="4"/>
<feGaussianBlur stdDeviation="2"/>
<feComposite in2="hardAlpha" operator="out"/>
<feColorMatrix type="matrix" values="0 0 0 0 0 0 0 0 0 0 0 0 0 0 0 0 0 0 0.25 0"/>
<feBlend mode="normal" in2="BackgroundImageFix" result="effect1_dropShadow_511_3211"/>
<feBlend mode="normal" in="SourceGraphic" in2="effect1_dropShadow_511_3211" result="shape"/>
</filter>
<clipPath id="clip0_511_3211">
<rect width="100" height="22" fill="white" transform="translate(0 4)"/>
</clipPath>
</defs>
</svg>
